<svg xmlns="http://www.w3.org/2000/svg" width="83" height="53" viewBox="0 0 83 53">
  <g id="brank_transfer" data-name="brank transfer" transform="translate(0.177)">
    <rect id="MTN-Momo-e1584721116128-750x454" width="83" height="53" rx="8" transform="translate(-0.177)" fill="#f0f0f0"/>
    <path id="Icon_payment-bank-transfer" data-name="Icon payment-bank-transfer" d="M7.735,35.978H6.161L7.471,30.9H5.656l.284-1.089h5.212L10.867,30.9H9.046L7.735,35.978Zm5.388-2.368-.615,2.368H10.935l1.594-6.17h1.853a3.206,3.206,0,0,1,1.837.431,1.445,1.445,0,0,1,.614,1.262,1.664,1.664,0,0,1-.428,1.146,2.559,2.559,0,0,1-1.234.71l1.347,2.621H14.8L13.736,33.61h-.613Zm.273-1.064h.4a1.952,1.952,0,0,0,1.053-.24.811.811,0,0,0,.377-.734.592.592,0,0,0-.245-.519,1.354,1.354,0,0,0-.771-.173h-.382L13.4,32.547ZM21.7,34.509h-2.44l-.887,1.468H16.725l3.952-6.2H22.6l.758,6.2H21.828L21.7,34.509Zm-.077-1.1-.133-1.477q-.051-.532-.052-1.067v-.152a10.715,10.715,0,0,1-.562,1.071l-.97,1.625h1.717Zm9.066,2.566H28.928l-1.837-4.668H27.06l-.021.135q-.166.911-.34,1.629l-.748,2.9H24.532l1.594-6.17h1.842l1.754,4.545h.021c.041-.213.108-.519.2-.915s.4-1.607.929-3.629h1.414l-1.595,6.17Zm6.689-1.823a1.6,1.6,0,0,1-.764,1.395,3.667,3.667,0,0,1-2.069.513,3.83,3.83,0,0,1-1.837-.38V34.526a4.467,4.467,0,0,0,1.846.456,1.884,1.884,0,0,0,.9-.18.545.545,0,0,0,.325-.491.692.692,0,0,0-.07-.319.911.911,0,0,0-.2-.255,5.55,5.55,0,0,0-.64-.431,3.173,3.173,0,0,1-1-.827,1.5,1.5,0,0,1-.289-.882,1.583,1.583,0,0,1,.32-.973,2.068,2.068,0,0,1,.91-.667,3.621,3.621,0,0,1,1.36-.238,4.937,4.937,0,0,1,2.048.417l-.562.984a4.14,4.14,0,0,0-1.486-.313,1.2,1.2,0,0,0-.7.19.583.583,0,0,0-.274.5.654.654,0,0,0,.171.45,3.036,3.036,0,0,0,.764.509,2.862,2.862,0,0,1,.934.745,1.513,1.513,0,0,1,.311.951Zm2.829,1.823H38.636l1.594-6.17h4.2l-.278,1.072H41.531l-.408,1.591h2.441l-.289,1.067H40.834l-.624,2.439Zm8.514,0H44.509l1.594-6.17h4.22l-.278,1.072H47.4l-.346,1.355h2.462l-.284,1.071H46.773L46.36,34.9H49l-.278,1.081Zm3.964-2.368-.615,2.368H50.5l1.594-6.17h1.853a3.206,3.206,0,0,1,1.837.431A1.443,1.443,0,0,1,56.4,31.5a1.664,1.664,0,0,1-.428,1.146,2.559,2.559,0,0,1-1.234.71l1.347,2.621H54.369L53.3,33.61h-.613Zm.273-1.064h.4a1.952,1.952,0,0,0,1.053-.24.811.811,0,0,0,.377-.734.592.592,0,0,0-.245-.519,1.354,1.354,0,0,0-.771-.173h-.382l-.434,1.667ZM29.116,20.232a3.623,3.623,0,0,1,1.788.352,1.143,1.143,0,0,1,.6,1.052,1.438,1.438,0,0,1-.429,1.07,2.247,2.247,0,0,1-1.22.559v.026a1.625,1.625,0,0,1,.824.417,1.048,1.048,0,0,1,.307.78,1.733,1.733,0,0,1-.79,1.525,3.859,3.859,0,0,1-2.186.536h-2.7l1.6-6.317h2.2Zm-1.943,5.211h.93a1.584,1.584,0,0,0,.948-.251.811.811,0,0,0,.344-.7q0-.7-.946-.7H27.6l-.424,1.646Zm.688-2.709h.769a1.7,1.7,0,0,0,.937-.21.682.682,0,0,0,.313-.6q0-.592-.879-.592h-.785l-.356,1.4Zm8.361,2.311H33.777l-.889,1.5H31.235l3.957-6.343H37.12l.759,6.343H36.345l-.124-1.5Zm-.077-1.123-.134-1.512q-.052-.566-.053-1.093v-.155a10.9,10.9,0,0,1-.563,1.1l-.972,1.664h1.721Zm9.08,2.627H43.457L41.618,21.77h-.032l-.021.138q-.166.933-.341,1.668l-.749,2.973H39.055l1.6-6.317H42.5l1.757,4.653h.021c.041-.218.109-.531.2-.937s.4-1.645.93-3.716h1.416l-1.6,6.317Zm7.706,0H51.182l-1.09-2.558-.646.3-.563,2.255H47.308l1.6-6.317h1.581L49.7,23.265l.816-.886,2.113-2.147h1.865l-3.069,3.024,1.5,3.293ZM22.147,20.84a.634.634,0,0,0-.634-.634H7.558a.634.634,0,1,0,0,1.269H21.512A.635.635,0,0,0,22.147,20.84Zm-3.806,2.537a.635.635,0,0,0-.634-.634H7.558a.634.634,0,1,0,0,1.269H17.707A.635.635,0,0,0,18.341,23.377Zm-3.806,2.537a.635.635,0,0,0-.634-.634H7.558a.634.634,0,1,0,0,1.269H13.9A.635.635,0,0,0,14.535,25.914Z" transform="translate(10.737 -1.82)"/>
  </g>
</svg>
