<svg xmlns="http://www.w3.org/2000/svg" width="75" height="75" viewBox="0 0 75 75">
  <g id="Group_54" data-name="Group 54" transform="translate(-59 -556)">
    <rect id="Rectangle_49" data-name="Rectangle 49" width="75" height="75" rx="10" transform="translate(59 556)" fill="#fff"/>
    <path id="Rectangle_49_-_Outline" data-name="Rectangle 49 - Outline" d="M10,1a9.01,9.01,0,0,0-9,9V65a9.01,9.01,0,0,0,9,9H65a9.01,9.01,0,0,0,9-9V10a9.01,9.01,0,0,0-9-9H10m0-1H65A10,10,0,0,1,75,10V65A10,10,0,0,1,65,75H10A10,10,0,0,1,0,65V10A10,10,0,0,1,10,0Z" transform="translate(59 556)" fill="#707070"/>
    <g id="Icon_feather-upload" data-name="Icon feather-upload" transform="translate(78.5 575.5)">
      <path id="Path_44" data-name="Path 44" d="M28.5,33H7.5A4.505,4.505,0,0,1,3,28.5v-6a1.5,1.5,0,0,1,3,0v6A1.5,1.5,0,0,0,7.5,30h21A1.5,1.5,0,0,0,30,28.5v-6a1.5,1.5,0,0,1,3,0v6A4.505,4.505,0,0,1,28.5,33Z"/>
      <path id="Path_45" data-name="Path 45" d="M25.5,13.5a1.5,1.5,0,0,1-1.061-.439L18,6.621l-6.439,6.439a1.5,1.5,0,0,1-2.121-2.121l7.5-7.5a1.5,1.5,0,0,1,2.121,0l7.5,7.5A1.5,1.5,0,0,1,25.5,13.5Z"/>
      <path id="Path_46" data-name="Path 46" d="M18,24a1.5,1.5,0,0,1-1.5-1.5V4.5a1.5,1.5,0,0,1,3,0v18A1.5,1.5,0,0,1,18,24Z"/>
    </g>
  </g>
</svg>
