<svg xmlns="http://www.w3.org/2000/svg" width="94.226" height="94.232" viewBox="0 0 94.226 94.232">
  <g id="Icon_feather-check-circle" data-name="Icon feather-check-circle" transform="translate(-1.499 -1.49)">
    <path id="Path_5" data-name="Path 5" d="M48.62,95.722q-.878,0-1.756-.033A47.116,47.116,0,1,1,67.788,5.572a1.5,1.5,0,1,1-1.221,2.74,44.113,44.113,0,0,0-54.96,64.3A44.113,44.113,0,0,0,92.725,48.631v-4.2a1.5,1.5,0,0,1,3,0v4.2A47.128,47.128,0,0,1,48.62,95.722Z" transform="translate(0)"/>
    <path id="Path_6" data-name="Path 6" d="M27.184,53.158a1.5,1.5,0,0,1-1.061-.439L12.439,39.035a1.5,1.5,0,1,1,2.121-2.121L27.183,49.536,71.735,4.94a1.5,1.5,0,0,1,2.122,2.12L28.245,52.718a1.5,1.5,0,0,1-1.061.44Z" transform="translate(21.429 6.142)"/>
  </g>
</svg>
