<svg xmlns="http://www.w3.org/2000/svg" width="50" height="50" viewBox="0 0 50 50">
  <g id="scoutuo_icon" data-name="scoutuo icon" transform="translate(0.482)">
    <circle id="Ellipse_6" data-name="Ellipse 6" cx="25" cy="25" r="25" transform="translate(-0.482)" fill="#387981"/>
    <path id="Path_73" data-name="Path 73" d="M2648.15,1784.886a11.162,11.162,0,0,1-11.15-11.15.75.75,0,0,1,.75-.75h3.255a11.148,11.148,0,1,1,18.294-8.553.75.75,0,0,1-.75.75h-3.255a11.145,11.145,0,0,1-7.145,19.7Zm-9.621-10.4a9.65,9.65,0,1,0,10.371-10.371v4.271a5.4,5.4,0,1,1-6.1,6.1Zm5.912.462a3.9,3.9,0,1,0,4.459-5.041v4.926a.75.75,0,0,1-.75.75A11.1,11.1,0,0,1,2644.441,1774.948Zm3.709-20.165a9.65,9.65,0,0,0-.75,19.271v-4.271a5.4,5.4,0,1,1,6.1-6.1h4.271A9.663,9.663,0,0,0,2648.15,1754.783Zm0,5.748a3.9,3.9,0,0,0-.75,7.731v-4.926a.75.75,0,0,1,.75-.75,11.1,11.1,0,0,1,3.709.634A3.908,3.908,0,0,0,2648.15,1760.531Z" transform="translate(-2623.903 -1743.617)" fill="#fff"/>
  </g>
</svg>
