<svg xmlns="http://www.w3.org/2000/svg" width="187" height="310.188" viewBox="0 0 187 310.188">
  <g id="socutap_logo" data-name="socutap logo" transform="translate(-87 -212)">
    <g id="logo" transform="translate(-2542.75 -705.033)">
      <g id="Group_31" data-name="Group 31">
        <path id="Path_51" data-name="Path 51" d="M2723.75,1089.033a86,86,0,1,1,86-86h-47.533a38.467,38.467,0,1,0-38.467,38.467Z" fill="#f7916d"/>
      </g>
      <g id="Group_32" data-name="Group 32">
        <path id="Path_52" data-name="Path 52" d="M2723.75,1165.968a86.1,86.1,0,0,1-86-86h47.533a38.467,38.467,0,1,0,38.467-38.467V993.967a86,86,0,0,1,0,172Z" fill="#387981"/>
      </g>
    </g>
    <g id="Group_34" data-name="Group 34" transform="translate(-2216.25 -721.585)">
      <path id="Path_53" data-name="Path 53" d="M2303.25,1254.506l3.312-5.364a16.4,16.4,0,0,0,8.675,2.892c1.539,0,2.239-.466,2.239-1.352v-.094c0-.979-1.4-1.4-4.058-2.146-4.991-1.306-8.955-2.985-8.955-8.068v-.093c0-5.364,4.291-8.349,10.121-8.349a19.733,19.733,0,0,1,10.4,2.938l-3.031,5.6a17.059,17.059,0,0,0-7.462-2.332c-1.352,0-2.052.513-2.052,1.213v.093c0,.979,1.446,1.446,4.1,2.239,4.99,1.4,8.955,3.125,8.955,8.022v.093c0,5.55-4.151,8.442-10.308,8.442A20.352,20.352,0,0,1,2303.25,1254.506Z" transform="translate(0 -20.552)" fill="#fff"/>
      <path id="Path_54" data-name="Path 54" d="M2415.049,1245.178v-.093a13.108,13.108,0,0,1,13.526-13.152c5.177,0,8.628,2.239,10.773,5.643l-6.016,4.477a5.437,5.437,0,0,0-4.71-2.658c-2.845,0-4.944,2.518-4.944,5.6v.094c0,3.265,2.052,5.737,5.037,5.737,2.1,0,3.451-.979,4.851-2.612l5.923,4.29c-2.332,3.451-5.69,5.783-11.24,5.783A13.019,13.019,0,0,1,2415.049,1245.178Z" transform="translate(-86.94 -20.552)" fill="#fff"/>
      <path id="Path_55" data-name="Path 55" d="M2531.253,1245.015v-.093c0-7.182,5.876-13.2,13.992-13.2,8.068,0,13.9,5.923,13.9,13.105v.094c0,7.182-5.877,13.2-13.992,13.2C2537.083,1258.121,2531.253,1252.2,2531.253,1245.015Zm19.262,0v-.093a5.469,5.469,0,0,0-5.363-5.69,5.285,5.285,0,0,0-5.271,5.6v.094a5.47,5.47,0,0,0,5.364,5.69A5.285,5.285,0,0,0,2550.515,1245.015Z" transform="translate(-177.305 -20.389)" fill="#fff"/>
      <path id="Path_56" data-name="Path 56" d="M2672.628,1250.75v-16.51h8.861v13.665c0,2.752,1.446,4.244,3.592,4.244,2.1,0,3.685-1.492,3.685-4.244V1234.24h8.861v25.232h-8.861v-3.451a9.284,9.284,0,0,1-7.556,4.011C2675.846,1260.031,2672.628,1256.487,2672.628,1250.75Z" transform="translate(-287.245 -22.346)" fill="#fff"/>
      <path id="Path_57" data-name="Path 57" d="M2889.681,1247.949v-.093c0-5.2,3.944-7.887,9.836-7.887a19.245,19.245,0,0,1,6.031.974v-.417c0-2.6-1.624-4.083-5.011-4.083a17.679,17.679,0,0,0-6.913,1.392l-1.81-6.217a25.217,25.217,0,0,1,10.161-1.948c4.5,0,7.563,1.067,9.558,3.062,1.9,1.856,2.691,4.454,2.691,7.98v14.429H2905.5v-2.6a9.466,9.466,0,0,1-7.377,3.155C2893.346,1255.7,2889.681,1252.96,2889.681,1247.949Zm15.961-1.9v-1.16a9.238,9.238,0,0,0-3.434-.65c-2.552,0-4.036,1.253-4.036,3.109v.093c0,1.717,1.3,2.738,3.108,2.738A4.034,4.034,0,0,0,2905.641,1246.047Z" transform="translate(-456.035 -18.792)" fill="#fff"/>
      <path id="Path_58" data-name="Path 58" d="M3020.3,1229.391h8.815v3.34c1.717-2.088,3.851-3.9,7.609-3.9,5.985,0,11.135,4.964,11.135,12.991v.093c0,8.166-5.15,13.13-11.089,13.13a9.426,9.426,0,0,1-7.656-3.619v10.486H3020.3Zm18.884,12.574v-.093c0-3.294-2.273-5.661-5.15-5.661-2.83,0-5.1,2.366-5.1,5.661v.093c0,3.34,2.274,5.707,5.1,5.707C3036.914,1247.671,3039.188,1245.351,3039.188,1241.964Z" transform="translate(-557.614 -18.142)" fill="#fff"/>
      <path id="Path_59" data-name="Path 59" d="M2817.671,1219.029v-7.136h-5.877v-6.39h-8.861v6.39h-2.985v7.136h2.978l.007,10.259c0,6.016,3.172,8.349,8.489,8.349a12.637,12.637,0,0,0,6.156-1.446v-6.949a7.774,7.774,0,0,1-3.358.839c-1.632,0-2.426-.746-2.426-2.519v-8.535Z" transform="translate(-386.255)" fill="#fff"/>
    </g>
  </g>
</svg>
