<svg xmlns="http://www.w3.org/2000/svg" width="241" height="113" viewBox="0 0 241 113">
  <g id="upload" transform="translate(-60 -310)">
    <rect id="Rectangle_33" data-name="Rectangle 33" width="241" height="113" rx="10" transform="translate(60 310)" fill="#fff"/>
    <path id="Rectangle_33_-_Outline" data-name="Rectangle 33 - Outline" d="M10,3a7.008,7.008,0,0,0-7,7v93a7.008,7.008,0,0,0,7,7H231a7.008,7.008,0,0,0,7-7V10a7.008,7.008,0,0,0-7-7H10m0-3H231a10,10,0,0,1,10,10v93a10,10,0,0,1-10,10H10A10,10,0,0,1,0,103V10A10,10,0,0,1,10,0Z" transform="translate(60 310)" fill="#707070"/>
    <g id="Icon_feather-upload" data-name="Icon feather-upload" transform="translate(153.833 326.833)">
      <path id="Path_41" data-name="Path 41" d="M43.018,38.444H9.315A6.322,6.322,0,0,1,3,32.13V22.5a1.5,1.5,0,1,1,3,0v9.63a3.319,3.319,0,0,0,3.315,3.315h33.7a3.319,3.319,0,0,0,3.315-3.315V22.5a1.5,1.5,0,1,1,3,0v9.63A6.322,6.322,0,0,1,43.018,38.444Z" transform="translate(0 10.889)"/>
      <path id="Path_42" data-name="Path 42" d="M34.574,18.037a1.5,1.5,0,0,1-1.061-.439L22.537,6.621,11.561,17.6a1.5,1.5,0,0,1-2.121-2.121L21.476,3.439a1.5,1.5,0,0,1,2.121,0L35.635,15.476a1.5,1.5,0,0,1-1.061,2.561Z" transform="translate(3.63)"/>
      <path id="Path_43" data-name="Path 43" d="M18,34.889a1.5,1.5,0,0,1-1.5-1.5V4.5a1.5,1.5,0,1,1,3,0V33.389A1.5,1.5,0,0,1,18,34.889Z" transform="translate(8.167)"/>
    </g>
    <text id="Upload_photos" data-name="Upload photos" transform="translate(180 401)" font-size="16" font-family="SegoeUI-Semibold, Segoe UI" font-weight="600"><tspan x="-53.738" y="0">Upload photos</tspan></text>
  </g>
</svg>
