<svg xmlns="http://www.w3.org/2000/svg" width="21.119" height="23.384" viewBox="0 0 21.119 23.384">
  <g id="user" transform="translate(1.5 1.5)">
    <path id="Path_2" data-name="Path 2" d="M24.119,30.795a1.5,1.5,0,0,1-1.5-1.5V27.03A3.033,3.033,0,0,0,19.589,24H10.53A3.033,3.033,0,0,0,7.5,27.03v2.265a1.5,1.5,0,1,1-3,0V27.03A6.037,6.037,0,0,1,10.53,21h9.059a6.037,6.037,0,0,1,6.03,6.03v2.265A1.5,1.5,0,0,1,24.119,30.795Z" transform="translate(-6 -8.911)" fill="#387981"/>
    <path id="Path_3" data-name="Path 3" d="M16.53,3A6.03,6.03,0,1,1,10.5,9.03,6.037,6.037,0,0,1,16.53,3Zm0,9.059A3.03,3.03,0,1,0,13.5,9.03,3.033,3.033,0,0,0,16.53,12.059Z" transform="translate(-7.47 -4.5)" fill="#387981"/>
  </g>
</svg>
