<?xml version="1.0" encoding="UTF-8"?>
<svg id="Layer_2" data-name="Layer 2" xmlns="http://www.w3.org/2000/svg" viewBox="0 0 300.54 300.54">
  <defs>
    <style>
      .cls-1 {
        fill: #f2f2f2;
        stroke-width: 0px;
      }
    </style>
  </defs>
  <g id="Layer_1-2" data-name="Layer 1">
    <g>
      <path class="cls-1" d="m150.27,300.54C67.41,300.54,0,233.13,0,150.27S67.41,0,150.27,0s150.27,67.41,150.27,150.27-67.41,150.27-150.27,150.27Zm0-289.94C73.26,10.6,10.6,73.26,10.6,150.27s62.66,139.67,139.67,139.67,139.67-62.66,139.67-139.67S227.29,10.6,150.27,10.6Z"/>
      <path class="cls-1" d="m179,185.67v-71.83s8.47,14.12,39.43,14.36c.43,0,.8-.35.8-.78v-24.31c0-.42-.35-.76-.77-.77-24.9-.39-36.2-19.63-36.57-36.5-.01-.47-.39-.85-.86-.85h-27.11c-.43,0-.77.35-.77.77v118.01c0,8.07-4.35,15.69-11.58,19.25-20.65,10.15-40.99-9.43-32.35-30.05,2.2-5.25,6.55-9.37,11.87-11.42,4.83-1.87,9.59-2.15,13.9-1.24.51.11.93-.21.93-.73,0-4.19,0-20.99,0-24.61,0-.39-.31-.73-.69-.77-7.07-.73-14.59.06-22.23,2.67-13.13,4.5-23.69,14.77-28.41,27.81-12.5,34.56,12.76,66.95,45.59,66.95,26.98,0,48.85-21.87,48.85-48.85"/>
    </g>
  </g>
</svg>