<?xml version="1.0" encoding="UTF-8"?>
<svg id="Layer_2" data-name="Layer 2" xmlns="http://www.w3.org/2000/svg" viewBox="0 0 300.54 300.54">
  <defs>
    <style>
      .cls-1 {
        fill: #f2f2f2;
        stroke-width: 0px;
      }
    </style>
  </defs>
  <g id="Layer_1-2" data-name="Layer 1">
    <g>
      <path class="cls-1" d="m150.27,300.54C67.41,300.54,0,233.13,0,150.27S67.41,0,150.27,0s150.27,67.41,150.27,150.27-67.41,150.27-150.27,150.27Zm0-289.94C73.26,10.6,10.6,73.26,10.6,150.27s62.66,139.67,139.67,139.67,139.67-62.66,139.67-139.67S227.29,10.6,150.27,10.6Z"/>
      <path class="cls-1" d="m212.75,88.84h-124.95c-12.35,0-22.36,10.01-22.36,22.35v78.15c0,12.35,10.01,22.35,22.36,22.35h124.95c12.34,0,22.35-10,22.35-22.35v-78.15c0-12.34-10.01-22.35-22.35-22.35Zm-42.41,66.82l-34.74,17.36c-4.01,2.01-8.73-.91-8.73-5.39v-34.73c0-4.48,4.72-7.39,8.73-5.39l34.74,17.37c4.44,2.22,4.44,8.56,0,10.78Z"/>
    </g>
  </g>
</svg>