<?xml version="1.0" encoding="UTF-8"?>
<svg id="Layer_2" data-name="Layer 2" xmlns="http://www.w3.org/2000/svg" viewBox="0 0 300.54 300.54">
  <defs>
    <style>
      .cls-1 {
        fill: #f2f2f2;
        stroke-width: 0px;
      }
    </style>
  </defs>
  <g id="Layer_1-2" data-name="Layer 1">
    <g>
      <path class="cls-1" d="m150.27,300.54C67.41,300.54,0,233.13,0,150.27S67.41,0,150.27,0s150.27,67.41,150.27,150.27-67.41,150.27-150.27,150.27Zm0-289.94C73.26,10.6,10.6,73.26,10.6,150.27s62.66,139.67,139.67,139.67,139.67-62.66,139.67-139.67S227.29,10.6,150.27,10.6Z"/>
      <path class="cls-1" d="m189.6,74.23h-78.66c-20.27,0-36.71,16.44-36.71,36.71v78.66c0,20.27,16.44,36.71,36.71,36.71h78.66c20.27,0,36.71-16.44,36.71-36.71v-78.66c0-20.27-16.44-36.71-36.71-36.71Zm23.6,112.75c0,14.47-11.75,26.22-26.22,26.22h-73.42c-14.47,0-26.22-11.75-26.22-26.22v-73.42c0-14.47,11.75-26.22,26.22-26.22h73.42c14.47,0,26.22,11.75,26.22,26.22v73.42Z"/>
      <path class="cls-1" d="m150.35,110.94c-21.71,0-39.33,17.62-39.33,39.33s17.62,39.33,39.33,39.33,39.33-17.62,39.33-39.33-17.62-39.33-39.33-39.33Zm0,65.55c-14.45,0-26.22-11.77-26.22-26.22s11.77-26.22,26.22-26.22,26.22,11.77,26.22,26.22-11.77,26.22-26.22,26.22Z"/>
      <circle class="cls-1" cx="192.3" cy="108.32" r="7.87"/>
    </g>
  </g>
</svg>