<?xml version="1.0" encoding="UTF-8"?>
<svg id="Layer_2" data-name="Layer 2" xmlns="http://www.w3.org/2000/svg" viewBox="0 0 300.54 300.54">
  <defs>
    <style>
      .cls-1 {
        fill: #f2f2f2;
        stroke-width: 0px;
      }
    </style>
  </defs>
  <g id="Layer_1-2" data-name="Layer 1">
    <g>
      <path class="cls-1" d="m150.27,300.54C67.41,300.54,0,233.13,0,150.27S67.41,0,150.27,0s150.27,67.41,150.27,150.27-67.41,150.27-150.27,150.27Zm0-289.94C73.26,10.6,10.6,73.26,10.6,150.27s62.66,139.67,139.67,139.67,139.67-62.66,139.67-139.67S227.29,10.6,150.27,10.6Z"/>
      <path class="cls-1" d="m193.22,139.02l-2.42,19.39c-.41,3.24-3.15,5.68-6.4,5.68h-31.41v81.09c-3.32.3-6.67.45-10.06.45-7.59,0-15-.76-22.16-2.2v-79.34h-24.16c-2.22,0-4.03-1.82-4.03-4.04v-24.27c0-2.22,1.81-4.04,4.03-4.04h24.16v-36.4c0-22.34,18.03-40.44,40.28-40.44h28.19c2.22,0,4.03,1.82,4.03,4.04v24.27c0,2.22-1.81,4.04-4.03,4.04h-20.14c-8.89,0-16.11,7.24-16.11,16.18v28.31h33.83c3.88,0,6.88,3.42,6.4,7.28Z"/>
    </g>
  </g>
</svg>