<?xml version="1.0" encoding="UTF-8"?>
<svg id="Layer_2" data-name="Layer 2" xmlns="http://www.w3.org/2000/svg" viewBox="0 0 300.54 300.54">
  <defs>
    <style>
      .cls-1 {
        fill: #f2f2f2;
        stroke-width: 0px;
      }
    </style>
  </defs>
  <g id="Layer_1-2" data-name="Layer 1">
    <g>
      <path class="cls-1" d="m150.27,300.54C67.41,300.54,0,233.13,0,150.27S67.41,0,150.27,0s150.27,67.41,150.27,150.27-67.41,150.27-150.27,150.27Zm0-289.94C73.26,10.6,10.6,73.26,10.6,150.27s62.66,139.67,139.67,139.67,139.67-62.66,139.67-139.67S227.29,10.6,150.27,10.6Z"/>
      <path class="cls-1" d="m171.19,136.95l58.64-62.73h-22.27l-46.03,49.24-35.25-49.24h-60.91l61.66,86.13-61.66,65.95h22.27l49.05-52.46,37.56,52.46h60.91l-63.97-89.36Zm-74.43-46.6h21.24l85.78,119.82h-21.24l-85.78-119.82Z"/>
    </g>
  </g>
</svg>