<?xml version="1.0" encoding="UTF-8"?>
<svg id="Layer_2" data-name="Layer 2" xmlns="http://www.w3.org/2000/svg" viewBox="0 0 300.54 300.54">
  <defs>
    <style>
      .cls-1 {
        fill: #f2f2f2;
        stroke-width: 0px;
      }
    </style>
  </defs>
  <g id="Layer_1-2" data-name="Layer 1">
    <g>
      <path class="cls-1" d="m150.27,300.54C67.41,300.54,0,233.13,0,150.27S67.41,0,150.27,0s150.27,67.41,150.27,150.27-67.41,150.27-150.27,150.27Zm0-289.94C73.26,10.6,10.6,73.26,10.6,150.27s62.66,139.67,139.67,139.67,139.67-62.66,139.67-139.67S227.29,10.6,150.27,10.6Z"/>
      <circle class="cls-1" cx="98.92" cy="92.84" r="18.67"/>
      <rect class="cls-1" x="83.36" y="123.96" width="31.12" height="93.36" rx=".79" ry=".79"/>
      <path class="cls-1" d="m220.29,158.19v52.9c0,3.42-2.8,6.22-6.22,6.22h-18.67c-3.42,0-6.22-2.8-6.22-6.22v-43.57c0-8.59-6.97-15.56-15.56-15.56s-15.56,6.97-15.56,15.56v43.57c0,3.42-2.8,6.22-6.22,6.22h-18.67c-3.42,0-6.22-2.8-6.22-6.22v-80.91c0-3.42,2.8-6.22,6.22-6.22h18.67c3.42,0,6.22,2.8,6.22,6.22v3.98c6.22-8.06,16.52-13.32,28.01-13.32,17.18,0,34.23,12.45,34.23,37.34Z"/>
    </g>
  </g>
</svg>